                        <svg width="68" height="262" viewBox="0 0 68 262" fill="none" xmlns="http://www.w3.org/2000/svg">
                            <g clip-path="url(#clip0_70_15)">
                                <path d="M1.72012 4.18608C2.67281 4.18608 3.44512 3.41378 3.44512 2.46108C3.44512 1.50839 2.67281 0.736084 1.72012 0.736084C0.767426 0.736084 -0.00488281 1.50839 -0.00488281 2.46108C-0.00488281 3.41378 0.767426 4.18608 1.72012 4.18608Z" fill="#1CE5FF" />
                                <path d="M1.72012 33.1361C2.67281 33.1361 3.44512 32.3638 3.44512 31.4111C3.44512 30.4584 2.67281 29.6861 1.72012 29.6861C0.767426 29.6861 -0.00488281 30.4584 -0.00488281 31.4111C-0.00488281 32.3638 0.767426 33.1361 1.72012 33.1361Z" fill="#1CE5FF" />
                                <path d="M1.72012 62.0861C2.67281 62.0861 3.44512 61.3138 3.44512 60.3611C3.44512 59.4084 2.67281 58.6361 1.72012 58.6361C0.767426 58.6361 -0.00488281 59.4084 -0.00488281 60.3611C-0.00488281 61.3138 0.767426 62.0861 1.72012 62.0861Z" fill="#1CE5FF" />
                                <path d="M1.72012 91.0361C2.67281 91.0361 3.44512 90.2638 3.44512 89.3111C3.44512 88.3584 2.67281 87.5861 1.72012 87.5861C0.767426 87.5861 -0.00488281 88.3584 -0.00488281 89.3111C-0.00488281 90.2638 0.767426 91.0361 1.72012 91.0361Z" fill="#1CE5FF" />
                                <path d="M1.72012 119.986C2.67281 119.986 3.44512 119.214 3.44512 118.261C3.44512 117.308 2.67281 116.536 1.72012 116.536C0.767426 116.536 -0.00488281 117.308 -0.00488281 118.261C-0.00488281 119.214 0.767426 119.986 1.72012 119.986Z" fill="#1CE5FF" />
                                <path d="M1.72012 148.946C2.67281 148.946 3.44512 148.174 3.44512 147.221C3.44512 146.268 2.67281 145.496 1.72012 145.496C0.767426 145.496 -0.00488281 146.268 -0.00488281 147.221C-0.00488281 148.174 0.767426 148.946 1.72012 148.946Z" fill="#1CE5FF" />
                                <path d="M1.72012 177.896C2.67281 177.896 3.44512 177.124 3.44512 176.171C3.44512 175.218 2.67281 174.446 1.72012 174.446C0.767426 174.446 -0.00488281 175.218 -0.00488281 176.171C-0.00488281 177.124 0.767426 177.896 1.72012 177.896Z" fill="#1CE5FF" />
                                <path d="M1.72012 206.846C2.67281 206.846 3.44512 206.074 3.44512 205.121C3.44512 204.168 2.67281 203.396 1.72012 203.396C0.767426 203.396 -0.00488281 204.168 -0.00488281 205.121C-0.00488281 206.074 0.767426 206.846 1.72012 206.846Z" fill="#1CE5FF" />
                                <path d="M1.72012 235.796C2.67281 235.796 3.44512 235.024 3.44512 234.071C3.44512 233.118 2.67281 232.346 1.72012 232.346C0.767426 232.346 -0.00488281 233.118 -0.00488281 234.071C-0.00488281 235.024 0.767426 235.796 1.72012 235.796Z" fill="#1CE5FF" />
                                <path d="M1.72012 264.746C2.67281 264.746 3.44512 263.974 3.44512 263.021C3.44512 262.068 2.67281 261.296 1.72012 261.296C0.767426 261.296 -0.00488281 262.068 -0.00488281 263.021C-0.00488281 263.974 0.767426 264.746 1.72012 264.746Z" fill="#1CE5FF" />
                                <path d="M30.6503 4.18608C31.603 4.18608 32.3753 3.41378 32.3753 2.46108C32.3753 1.50839 31.603 0.736084 30.6503 0.736084C29.6976 0.736084 28.9253 1.50839 28.9253 2.46108C28.9253 3.41378 29.6976 4.18608 30.6503 4.18608Z" fill="#1CE5FF" />
                                <path d="M30.6503 33.1361C31.603 33.1361 32.3753 32.3638 32.3753 31.4111C32.3753 30.4584 31.603 29.6861 30.6503 29.6861C29.6976 29.6861 28.9253 30.4584 28.9253 31.4111C28.9253 32.3638 29.6976 33.1361 30.6503 33.1361Z" fill="#1CE5FF" />
                                <path d="M30.6503 62.0861C31.603 62.0861 32.3753 61.3138 32.3753 60.3611C32.3753 59.4084 31.603 58.6361 30.6503 58.6361C29.6976 58.6361 28.9253 59.4084 28.9253 60.3611C28.9253 61.3138 29.6976 62.0861 30.6503 62.0861Z" fill="#1CE5FF" />
                                <path d="M30.6503 91.0361C31.603 91.0361 32.3753 90.2638 32.3753 89.3111C32.3753 88.3584 31.603 87.5861 30.6503 87.5861C29.6976 87.5861 28.9253 88.3584 28.9253 89.3111C28.9253 90.2638 29.6976 91.0361 30.6503 91.0361Z" fill="#1CE5FF" />
                                <path d="M30.6503 119.986C31.603 119.986 32.3753 119.214 32.3753 118.261C32.3753 117.308 31.603 116.536 30.6503 116.536C29.6976 116.536 28.9253 117.308 28.9253 118.261C28.9253 119.214 29.6976 119.986 30.6503 119.986Z" fill="#1CE5FF" />
                                <path d="M30.6503 148.946C31.603 148.946 32.3753 148.174 32.3753 147.221C32.3753 146.268 31.603 145.496 30.6503 145.496C29.6976 145.496 28.9253 146.268 28.9253 147.221C28.9253 148.174 29.6976 148.946 30.6503 148.946Z" fill="#1CE5FF" />
                                <path d="M30.6503 177.896C31.603 177.896 32.3753 177.124 32.3753 176.171C32.3753 175.218 31.603 174.446 30.6503 174.446C29.6976 174.446 28.9253 175.218 28.9253 176.171C28.9253 177.124 29.6976 177.896 30.6503 177.896Z" fill="#1CE5FF" />
                                <path d="M30.6503 206.846C31.603 206.846 32.3753 206.074 32.3753 205.121C32.3753 204.168 31.603 203.396 30.6503 203.396C29.6976 203.396 28.9253 204.168 28.9253 205.121C28.9253 206.074 29.6976 206.846 30.6503 206.846Z" fill="#1CE5FF" />
                                <path d="M30.6503 235.796C31.603 235.796 32.3753 235.024 32.3753 234.071C32.3753 233.118 31.603 232.346 30.6503 232.346C29.6976 232.346 28.9253 233.118 28.9253 234.071C28.9253 235.024 29.6976 235.796 30.6503 235.796Z" fill="#1CE5FF" />
                                <path d="M30.6503 264.746C31.603 264.746 32.3753 263.974 32.3753 263.021C32.3753 262.068 31.603 261.296 30.6503 261.296C29.6976 261.296 28.9253 262.068 28.9253 263.021C28.9253 263.974 29.6976 264.746 30.6503 264.746Z" fill="#1CE5FF" />
                                <path d="M59.5702 4.18608C60.5229 4.18608 61.2952 3.41378 61.2952 2.46108C61.2952 1.50839 60.5229 0.736084 59.5702 0.736084C58.6175 0.736084 57.8452 1.50839 57.8452 2.46108C57.8452 3.41378 58.6175 4.18608 59.5702 4.18608Z" fill="#1CE5FF" />
                                <path d="M59.5702 33.1361C60.5229 33.1361 61.2952 32.3638 61.2952 31.4111C61.2952 30.4584 60.5229 29.6861 59.5702 29.6861C58.6175 29.6861 57.8452 30.4584 57.8452 31.4111C57.8452 32.3638 58.6175 33.1361 59.5702 33.1361Z" fill="#1CE5FF" />
                                <path d="M59.5702 62.0861C60.5229 62.0861 61.2952 61.3138 61.2952 60.3611C61.2952 59.4084 60.5229 58.6361 59.5702 58.6361C58.6175 58.6361 57.8452 59.4084 57.8452 60.3611C57.8452 61.3138 58.6175 62.0861 59.5702 62.0861Z" fill="#1CE5FF" />
                                <path d="M59.5702 91.0361C60.5229 91.0361 61.2952 90.2638 61.2952 89.3111C61.2952 88.3584 60.5229 87.5861 59.5702 87.5861C58.6175 87.5861 57.8452 88.3584 57.8452 89.3111C57.8452 90.2638 58.6175 91.0361 59.5702 91.0361Z" fill="#1CE5FF" />
                                <path d="M59.5702 119.986C60.5229 119.986 61.2952 119.214 61.2952 118.261C61.2952 117.308 60.5229 116.536 59.5702 116.536C58.6175 116.536 57.8452 117.308 57.8452 118.261C57.8452 119.214 58.6175 119.986 59.5702 119.986Z" fill="#1CE5FF" />
                                <path d="M59.5702 148.946C60.5229 148.946 61.2952 148.174 61.2952 147.221C61.2952 146.268 60.5229 145.496 59.5702 145.496C58.6175 145.496 57.8452 146.268 57.8452 147.221C57.8452 148.174 58.6175 148.946 59.5702 148.946Z" fill="#1CE5FF" />
                                <path d="M59.5702 177.896C60.5229 177.896 61.2952 177.124 61.2952 176.171C61.2952 175.218 60.5229 174.446 59.5702 174.446C58.6175 174.446 57.8452 175.218 57.8452 176.171C57.8452 177.124 58.6175 177.896 59.5702 177.896Z" fill="#1CE5FF" />
                                <path d="M59.5702 206.846C60.5229 206.846 61.2952 206.074 61.2952 205.121C61.2952 204.168 60.5229 203.396 59.5702 203.396C58.6175 203.396 57.8452 204.168 57.8452 205.121C57.8452 206.074 58.6175 206.846 59.5702 206.846Z" fill="#1CE5FF" />
                                <path d="M59.5702 235.796C60.5229 235.796 61.2952 235.024 61.2952 234.071C61.2952 233.118 60.5229 232.346 59.5702 232.346C58.6175 232.346 57.8452 233.118 57.8452 234.071C57.8452 235.024 58.6175 235.796 59.5702 235.796Z" fill="#1CE5FF" />
                                <path d="M59.5702 264.746C60.5229 264.746 61.2952 263.974 61.2952 263.021C61.2952 262.068 60.5229 261.296 59.5702 261.296C58.6175 261.296 57.8452 262.068 57.8452 263.021C57.8452 263.974 58.6175 264.746 59.5702 264.746Z" fill="#1CE5FF" />
                            </g>
                            <defs>
                                <clipPath id="clip0_70_15">
                                    <rect width="177" height="264" fill="white" transform="translate(0 0.741089)" />
                                </clipPath>
                            </defs>
                        </svg>